<?xml version="1.0" standalone="no"?><!DOCTYPE svg PUBLIC "-//W3C//DTD SVG 1.1//EN" "http://www.w3.org/Graphics/SVG/1.1/DTD/svg11.dtd"><svg class="icon" width="200px" height="200.00px" viewBox="0 0 1024 1024" version="1.1" xmlns="http://www.w3.org/2000/svg"><path d="M437.726 626.688h-29.491v60.075h29.49c28.946 0 43.692-10.377 43.692-32.222-0.547-20.207-14.746-27.853-43.691-27.853z m31.13-72.09c0-17.476-11.47-25.122-36.591-25.122h-24.576v52.975h24.576c25.122 0 36.59-10.376 36.59-27.853z" fill="#090909" /><path d="M805.82 383.659V295.73L578.082 20.48H78.37v995.055h726.904V843.503H996.42V383.659h-190.6zM174.49 116.053h359.355L709.7 330.138v53.52H174.49V116.054z m359.355 543.95c0 47.513-39.867 68.266-90.112 68.266h-86.835V498.347h80.282c47.513 0 85.743 12.56 85.743 56.798 0 20.206-11.47 42.598-30.038 49.698v1.638c23.484 6.008 40.96 23.484 40.96 53.521z m176.401 259.412H174.49v-76.458h535.756v76.458z m8.192-375.193h-91.75v50.244h78.643v45.875h-78.643v87.382h-55.16V498.347h146.91v45.875z" fill="#090909" /></svg>