<?xml version="1.0" standalone="no"?><!DOCTYPE svg PUBLIC "-//W3C//DTD SVG 1.1//EN" "http://www.w3.org/Graphics/SVG/1.1/DTD/svg11.dtd"><svg class="icon" width="200px" height="200.00px" viewBox="0 0 1024 1024" version="1.1" xmlns="http://www.w3.org/2000/svg"><path d="M112 667m24 0l752 0q24 0 24 24l0 42q0 24-24 24l-752 0q-24 0-24-24l0-42q0-24 24-24Z" fill="#2c2c2c" /><path d="M237 467m24 0l502 0q24 0 24 24l0 42q0 24-24 24l-502 0q-24 0-24-24l0-42q0-24 24-24Z" fill="#2c2c2c" /><path d="M412 267m24 0l152 0q24 0 24 24l0 42q0 24-24 24l-152 0q-24 0-24-24l0-42q0-24 24-24Z" fill="#2c2c2c" /></svg>