<?xml version="1.0" standalone="no"?><!DOCTYPE svg PUBLIC "-//W3C//DTD SVG 1.1//EN" "http://www.w3.org/Graphics/SVG/1.1/DTD/svg11.dtd"><svg class="icon" width="200px" height="200.00px" viewBox="0 0 1024 1024" version="1.1" xmlns="http://www.w3.org/2000/svg"><path d="M768 106.666667a128 128 0 0 1 128 128v597.333333a128 128 0 0 1-128 128H256a128 128 0 0 1-128-128v-597.333333a128 128 0 0 1 128-128h512z m0 85.333333H256a42.666667 42.666667 0 0 0-42.666667 42.666667v597.333333a42.666667 42.666667 0 0 0 42.666667 42.666667h512a42.666667 42.666667 0 0 0 42.666667-42.666667v-597.333333a42.666667 42.666667 0 0 0-42.666667-42.666667z" fill="#090909" /><path d="M298.666667 64m85.333333 0l256 0q85.333333 0 85.333333 85.333333l0 0q0 85.333333-85.333333 85.333334l-256 0q-85.333333 0-85.333333-85.333334l0 0q0-85.333333 85.333333-85.333333Z" fill="#090909" /><path d="M722.005333 405.333333l18.474667 10.666667a42.666667 42.666667 0 0 1 15.616 58.282667l-151.296 261.973333a42.666667 42.666667 0 0 1-29.354667 20.693333l-49.237333 8.874667-16.981333-47.104a42.666667 42.666667 0 0 1 3.2-35.754667l151.296-262.016a42.666667 42.666667 0 0 1 58.282666-15.616z" fill="#090909" /><path d="M554.666667 394.666667a32 32 0 1 1 0 64A138.666667 138.666667 0 0 0 416 597.333333a32 32 0 1 1-64 0A202.666667 202.666667 0 0 1 554.666667 394.666667z" fill="#090909" /><path d="M533.333333 288a32 32 0 1 1 0 64 224 224 0 0 0-224 224 32 32 0 1 1-64 0 288 288 0 0 1 288-288z" fill="#090909" /></svg>