<?xml version="1.0" standalone="no"?><!DOCTYPE svg PUBLIC "-//W3C//DTD SVG 1.1//EN" "http://www.w3.org/Graphics/SVG/1.1/DTD/svg11.dtd"><svg class="icon" width="200px" height="200.00px" viewBox="0 0 1024 1024" version="1.1" xmlns="http://www.w3.org/2000/svg"><path d="M832 432.96a128 128 0 0 1 128 128V832a128 128 0 0 1-128 128H560.96a128 128 0 0 1-128-128V560.96a128 128 0 0 1 128-128H832zM801.92 64c58.24 0 105.344 47.168 105.344 105.408l0.064 182.592a127.36 127.36 0 0 0-63.36-23.936L832 327.552l-3.776-0.064V192a48.96 48.96 0 0 0-43.2-48.64l-5.76-0.32H192a48.96 48.96 0 0 0-48.64 43.264L143.04 192v587.264c0 25.152 18.944 45.824 43.264 48.64l5.696 0.32h135.488V832c0 28.16 9.152 54.208 24.512 75.328H169.408c-58.24 0-105.408-47.232-105.408-105.472V169.408C64 111.168 111.168 64 169.408 64h632.448z" fill="#2c2c2c" /></svg>