<?xml version="1.0" standalone="no"?><!DOCTYPE svg PUBLIC "-//W3C//DTD SVG 1.1//EN" "http://www.w3.org/Graphics/SVG/1.1/DTD/svg11.dtd"><svg class="icon" width="200px" height="166.91px" viewBox="0 0 1227 1024" version="1.1" xmlns="http://www.w3.org/2000/svg"><path d="M0 512.613909c0-0.613909 0.613909-1.841727 0.613909-2.455636 0-12.892086 4.911271-25.170264 14.119904-34.378897l5.52518-3.683453 456.134292-456.134292c19.031175-20.258993 50.954436-20.872902 71.21343-1.227818 20.258993 19.031175 20.872902 50.954436 1.227817 71.213429l-1.227817 1.227818-374.484413 374.484412H1176.2494c28.239808 0 50.954436 22.714628 50.954437 50.954437s-22.714628 50.954436-50.954437 50.954436h-1003.127098l374.484413 374.484413c19.645084 19.645084 19.645084 51.568345 0 71.213429-19.645084 19.645084-51.568345 19.645084-71.21343 0l-456.134292-456.134293-5.52518-3.683453c-9.208633-9.208633-14.119904-21.486811-14.119904-34.378897 0-1.227818-0.613909-1.841727-0.613909-2.455635z" fill="#090909" /></svg>