<?xml version="1.0" standalone="no"?><!DOCTYPE svg PUBLIC "-//W3C//DTD SVG 1.1//EN" "http://www.w3.org/Graphics/SVG/1.1/DTD/svg11.dtd"><svg class="icon" width="200px" height="200.00px" viewBox="0 0 1024 1024" version="1.1" xmlns="http://www.w3.org/2000/svg"><path d="M789.366 97.865l0.396 0.351 106.647 96 0.083 0.075 0.167 0.152-0.25-0.227a31.814 31.814 0 0 1 9.3 14.759l0.04 0.136a31.848 31.848 0 0 1 1.118 5.954l0.014 0.164 0.03 0.359c0.002 0.046 0.006 0.092 0.009 0.137 0.022 0.3 0.039 0.603 0.051 0.906l0.006 0.156a25.292 25.292 0 0 1 0.016 0.56 32.046 32.046 0 0 1-0.015 1.848l-0.009 0.21-0.015 0.322-0.01 0.16a31.901 31.901 0 0 1-1.051 6.488l-0.037 0.133-0.07 0.254-0.074 0.254a31.78 31.78 0 0 1-8.578 14.094l-0.15 0.142a24.17 24.17 0 0 1-0.155 0.147l-0.028 0.026-0.283 0.26-0.109 0.098-106.647 96c-13.135 11.823-33.369 10.76-45.192-2.375-11.706-13.004-10.78-32.965 1.984-44.835l0.39-0.358L791.62 250H403.962v132.36a91.752 91.752 0 0 1 27.808-4.288c35.836 0 66.876 20.534 82 50.478 11.347-5.022 23.904-7.811 37.113-7.811 39.339 0 72.898 24.743 85.969 59.516 13.086-6.144 27.708-9.56 43.127-9.516 55.326 0.155 100.198 44.607 101.09 99.724l0.013 1.673v265.812c0 41.807-17.862 86.263-48.539 120.2-33.76 37.348-80.207 59.409-132.885 59.846l-1.598 0.007H352.444c-56.314 0-114.497-37.75-162.12-96.755C146.66 867.148 118 802.085 118 751.335c0-67.612 22.752-119.052 68.847-150.537a31.852 31.852 0 0 1 15.876-5.507V210.799c0-55.577 45.048-100.632 100.62-100.632 47.015 0 86.496 32.247 97.54 75.831H791.62l-44.676-40.214c-13.135-11.824-14.198-32.057-2.374-45.193 11.705-13.004 31.653-14.176 44.796-2.726zM339.962 250h-73.24v425.498c0 17.673-14.326 32-32 32-17.496 0-31.712-14.042-31.995-31.47l-0.004-0.53v-2.422C188.978 691.71 182 717.345 182 751.335c0 34.115 22.87 86.033 58.126 129.714 36.31 44.987 78.228 72.399 111.318 72.943l1 0.008H598.06c34.712 0 64.716-14.113 87.006-38.77 20.053-22.185 31.78-51.094 32.013-76.513l0.003-0.77V572.135c0-20.614-16.676-37.34-37.282-37.397-20.228-0.056-36.713 16.138-37.096 36.21l-0.007 0.61v2.357l-0.002 0.226v6.596c0 17.673-14.327 32-32 32-17.496 0-31.713-14.042-31.996-31.47l-0.004-0.53V512.56c0-15.367-12.453-27.822-27.812-27.822-13.536 0-24.815 9.675-27.301 22.491v61.216c0 1.975-0.18 3.91-0.522 5.786-0.454 17.278-14.602 31.144-31.988 31.144-17.497 0-31.713-14.042-31.996-31.471l-0.004-0.53V512.56c0-3.278 0.171-6.516 0.507-9.706l0.002-32.96c0-15.367-12.453-27.823-27.811-27.823-15.191 0-27.54 12.186-27.808 27.321v82.428l-0.005 0.485v7.028c0 17.673-14.326 32-32 32-17.495 0-31.712-14.041-31.995-31.47l-0.004-0.53v-89.44l0.004-0.583V249.999z m-36.618-75.832c-10.662 0-20.26 4.557-26.953 11.832h53.904c-6.692-7.275-16.29-11.832-26.951-11.832z" fill="#2c2c2c" /></svg>