<?xml version="1.0" standalone="no"?><!DOCTYPE svg PUBLIC "-//W3C//DTD SVG 1.1//EN" "http://www.w3.org/Graphics/SVG/1.1/DTD/svg11.dtd"><svg class="icon" width="200px" height="199.42px" viewBox="0 0 1027 1024" version="1.1" xmlns="http://www.w3.org/2000/svg"><path d="M808.96 204.8C682.666667 81.92 542.72 0 447.146667 0c-34.133333 0-58.026667 10.24-78.506667 27.306667-23.893333 23.893333-30.72 61.44-23.893333 109.226666 0 0 0 3.413333-3.413334 3.413334L64.853333 815.786667c-30.72-10.24-47.786667 0-54.613333 6.826666-23.893333 23.893333-3.413333 95.573333 44.373333 143.36 34.133333 34.133333 75.093333 58.026667 105.813334 58.026667 10.24 0 20.48-3.413333 30.72-10.24 6.826667-6.826667 17.066667-23.893333 6.826666-54.613333l174.08-71.68 37.546667 68.266666c10.24 20.48 30.72 34.133333 54.613333 34.133334 6.826667 0 17.066667 0 23.893334-3.413334l215.04-81.92c13.653333-6.826667 27.306667-20.48 34.133333-34.133333s3.413333-34.133333-3.413333-44.373333l-27.306667-68.266667 177.493333-71.68c3.413333 0 3.413333-3.413333 6.826667-6.826667 13.653333 3.413333 27.306667 3.413333 37.546667 3.413334 30.72 0 58.026667-10.24 75.093333-27.306667 75.093333-85.333333-37.546667-293.546667-194.56-450.56z m-112.64 631.466667c3.413333 6.826667 3.413333 13.653333 0 20.48-3.413333 6.826667-6.826667 10.24-13.653333 13.653333l-215.04 81.92c-13.653333 6.826667-27.306667 0-34.133334-13.653333l-37.546666-64.853334 266.24-109.226666 34.133333 71.68z m225.28-191.146667c-88.746667 0-232.106667-81.92-351.573333-201.386667-6.826667-6.826667-6.826667-17.066667 0-23.893333s17.066667-6.826667 23.893333 0c112.64 112.64 249.173333 191.146667 324.266667 191.146667 10.24 0 17.066667 6.826667 17.066666 17.066666s-3.413333 17.066667-13.653333 17.066667z" fill="#090909" /></svg>