<?xml version="1.0" standalone="no"?><!DOCTYPE svg PUBLIC "-//W3C//DTD SVG 1.1//EN" "http://www.w3.org/Graphics/SVG/1.1/DTD/svg11.dtd"><svg class="icon" width="200px" height="200.00px" viewBox="0 0 1024 1024" version="1.1" xmlns="http://www.w3.org/2000/svg"><path d="M307.2 128a128 128 0 0 0-128 128v512a128 128 0 0 0 128 128h320a115.2 115.2 0 0 0 115.2-115.2v-44.8a25.6 25.6 0 1 0-51.2 0v44.8a64 64 0 0 1-64 64H307.2A76.8 76.8 0 0 1 230.4 768V256a76.8 76.8 0 0 1 76.8-76.8h320a64 64 0 0 1 64 64v44.8a25.6 25.6 0 1 0 51.2 0V243.2A115.2 115.2 0 0 0 627.2 128H307.2z m25.6 537.6l102.912-358.4h50.133333l102.954667 358.4h-47.146667l-24.490666-89.856H404.437333L379.904 665.6H332.8z m127.445333-295.168l-42.666666 157.141333h86.357333l-42.24-157.141333h-1.450667z m334.634667 14.848a25.6 25.6 0 0 1 36.224 0l90.453333 90.538667a51.2 51.2 0 0 1 0 72.405333l-90.453333 90.453333a25.6 25.6 0 0 1-36.224-36.181333l64.896-64.896H640a25.6 25.6 0 1 1 0-51.2h219.776l-64.853333-64.896a25.6 25.6 0 0 1 0-36.224z" fill="#090909" /></svg>