<?xml version="1.0" standalone="no"?><!DOCTYPE svg PUBLIC "-//W3C//DTD SVG 1.1//EN" "http://www.w3.org/Graphics/SVG/1.1/DTD/svg11.dtd"><svg class="icon" width="200px" height="200.00px" viewBox="0 0 1024 1024" version="1.1" xmlns="http://www.w3.org/2000/svg"><path d="M213.333333 170.666667h597.333334v64H213.333333V170.666667zM213.333333 789.333333h597.333334V853.333333H213.333333v-64z" fill="#090909" /><path d="M746.666667 170.666667h-469.333334v64c0 141.397333 93.269333 266.666667 234.666667 266.666666s234.666667-125.269333 234.666667-266.666666V170.666667zM512 437.333333c-106.026667 0-170.666667-96.64-170.666667-202.666666h341.333334c0 106.026667-64.64 202.666667-170.666667 202.666666zM746.666667 853.333333h-469.333334v-64c0-141.397333 93.269333-266.666667 234.666667-266.666666s234.666667 125.269333 234.666667 266.666666V853.333333zM512 586.666667c-106.026667 0-170.666667 96.64-170.666667 202.666666h341.333334c0-106.026667-64.64-202.666667-170.666667-202.666666z" fill="#090909" /><path d="M448 490.666667V469.333333h128v21.333334c-12.8 4.522667-21.333333 7.765333-21.333333 21.333333s8.533333 16.810667 21.333333 21.333333v21.333334h-128v-21.333334c12.8-4.522667 21.333333-7.765333 21.333333-21.333333s-8.533333-16.810667-21.333333-21.333333z" fill="#090909" /><path d="M576 266.666667q0 60.330667-61.098667 75.605333l15.530667 62.122667Q640 377.002667 640 266.666667h-64z" fill="#090909" /></svg>