<?xml version="1.0" standalone="no"?><!DOCTYPE svg PUBLIC "-//W3C//DTD SVG 1.1//EN" "http://www.w3.org/Graphics/SVG/1.1/DTD/svg11.dtd"><svg class="icon" width="200px" height="200.00px" viewBox="0 0 1024 1024" version="1.1" xmlns="http://www.w3.org/2000/svg"><path d="M576.042667 161.834667a9.088 9.088 0 0 0-1.749334-5.888 16.384 16.384 0 0 0-7.168-5.12 17.792 17.792 0 0 0-17.493333 1.706666l-1.962667 1.621334-143.274666 136.746666c-32.597333 31.104-72.448 44.202667-107.221334 50.176-34.304 5.930667-69.888 5.845333-97.152 5.845334C122.069333 346.88 64.042667 406.528 64.042667 473.813333v76.373334c0 67.285333 58.026667 126.890667 136.021333 126.890666 27.221333 0 62.805333-0.085333 97.109333 5.845334 34.773333 5.973333 74.666667 19.072 107.221334 50.176l143.274666 136.746666 2.005334 1.664c4.821333 3.456 10.965333 4.224 17.450666 1.664a16.341333 16.341333 0 0 0 7.168-5.12 9.088 9.088 0 0 0 1.749334-5.888V161.834667zM942.549333 512c0-72.277333-32.426667-135.594667-81.493333-175.104l-10.026667-7.552a40.234667 40.234667 0 0 1-9.472-56.405333 40.96 40.96 0 0 1 56.832-9.429334C974.72 317.568 1024.042667 409.173333 1024.042667 512c0 102.826667-49.322667 194.474667-125.653334 248.490667l-3.541333 2.218666a40.96 40.96 0 0 1-50.730667-8.405333l-2.56-3.242667a40.234667 40.234667 0 0 1 9.472-56.405333c51.2-36.224 86.869333-97.28 91.136-168.32l0.426667-14.336z m-152.021333 0c0-26.965333-14.506667-52.693333-39.978667-69.76l-5.248-3.285333a40.277333 40.277333 0 0 1-14.208-55.424 40.96 40.96 0 0 1 55.808-14.08c49.834667 29.44 85.077333 81.322667 85.077334 142.549333l-0.426667 11.392c-4.010667 56.234667-37.930667 103.594667-84.650667 131.157333l-3.669333 1.92c-17.493333 8.064-38.357333 2.773333-49.834667-12.586666l-2.304-3.413334a40.277333 40.277333 0 0 1 14.208-55.466666c26.922667-15.872 43.093333-40.874667 45.056-67.626667l0.170667-5.376zM640.042667 862.165333l-0.256 6.229334c-4.906667 61.781333-82.261333 92.373333-131.498667 52.053333l-4.821333-4.266667-143.317334-136.789333c-34.816-33.28-88.192-37.632-138.666666-38.229333l-21.461334-0.085334c-106.965333 0-194.389333-80.213333-199.722666-181.077333L0.042667 550.186667v-76.373334c0-102.101333 84.053333-185.514667 189.696-190.634666l10.325333-0.256c52.736 0 112.341333-0.256 152.32-31.573334l7.765333-6.741333L503.509333 107.818667C553.856 59.733333 640 93.866667 640.042667 161.834667v700.330666z" fill="#090909" /></svg>