<?xml version="1.0" standalone="no"?><!DOCTYPE svg PUBLIC "-//W3C//DTD SVG 1.1//EN" "http://www.w3.org/Graphics/SVG/1.1/DTD/svg11.dtd"><svg class="icon" width="200px" height="200.00px" viewBox="0 0 1024 1024" version="1.1" xmlns="http://www.w3.org/2000/svg"><path d="M933.723429 409.782857c26.569143 0 41.142857-14.573714 41.142857-42.002286V168.502857c0-30.866286-19.712-51.437714-49.718857-51.437714-25.289143 0-39.862857 8.155429-59.995429 23.588571l-54.857143 42.422857c-9.874286 7.716571-13.714286 16.274286-13.714286 25.709715 0 13.714286 10.276571 25.289143 27.849143 25.289143 6.857143 0 13.714286-2.139429 19.712-7.296l44.141715-35.565715h3.437714v176.566857c0 27.428571 14.994286 42.002286 42.002286 42.002286z m-890.148572 73.289143a46.994286 46.994286 0 0 0 47.140572 47.140571 47.104 47.104 0 0 0 47.579428-47.140571v-28.288c0-68.132571 46.701714-113.133714 116.992-113.133714h231.424v89.563428c0 23.149714 14.994286 37.723429 38.582857 37.723429 10.276571 0 20.992-3.858286 29.129143-10.715429l162.011429-133.723428c19.273143-15.853714 18.852571-41.142857 0-57.417143l-162.011429-134.582857c-8.137143-6.436571-18.834286-10.715429-29.129143-10.715429-23.588571 0-38.582857 14.994286-38.582857 38.144v88.722286H264.283429c-134.582857 0-220.708571 77.568-220.708572 199.277714z m401.554286 114.852571c0-23.131429-14.555429-37.705143-38.125714-37.705142-10.294857 0-20.992 3.84-29.147429 10.276571l-162.011429 133.723429c-19.273143 15.853714-19.273143 41.142857 0 57.417142l162.011429 134.582858a46.134857 46.134857 0 0 0 29.147429 10.715428c23.570286 0 38.144-14.573714 38.144-37.723428v-89.563429h314.569142c134.582857 0 220.708571-78.006857 220.708572-199.296v-35.145143a47.177143 47.177143 0 0 0-47.561143-47.561143 47.104 47.104 0 0 0-47.158857 47.561143v28.288c0 67.712-46.701714 113.152-116.992 113.152H445.147429z" fill="#090909" /></svg>