<?xml version="1.0" standalone="no"?><!DOCTYPE svg PUBLIC "-//W3C//DTD SVG 1.1//EN" "http://www.w3.org/Graphics/SVG/1.1/DTD/svg11.dtd"><svg class="icon" width="200px" height="200.00px" viewBox="0 0 1024 1024" version="1.1" xmlns="http://www.w3.org/2000/svg"><path d="M917.332951 960.000027H895.999627v-239.317234a104.53329 104.53329 0 0 0-106.666623-102.015957h-134.911943a10.709329 10.709329 0 0 0-9.55733 5.930664l-21.333324 42.367982a124.885281 124.885281 0 0 1-223.402574 0l-21.333324-42.367982a10.666662 10.666662 0 0 0-9.514663-5.930664H234.666569A104.53329 104.53329 0 0 0 127.999947 720.682793V960.000027h-21.333325a31.999987 31.999987 0 0 0 0 63.999973h810.666329a31.999987 31.999987 0 0 0 0-63.999973zM287.99988 853.333404a42.666649 42.666649 0 1 1 42.666649 42.666649 42.666649 42.666649 0 0 1-42.666649-42.666649z m362.666516 0a42.666649 42.666649 0 1 1 42.666648 42.666649 42.666649 42.666649 0 0 1-42.666648-42.666649zM511.999787 810.666756a42.666649 42.666649 0 1 1-42.666649 42.666648 42.666649 42.666649 0 0 1 42.666649-42.666648z" fill="#090909" /><path d="M981.332924 533.333538v-74.666636a42.666649 42.666649 0 0 0-42.666648-42.666649 42.111982 42.111982 0 0 0-40.533317 31.999987H125.823948A42.069316 42.069316 0 0 0 85.333298 416.000253a42.666649 42.666649 0 0 0-42.666649 42.666649v74.666636a42.666649 42.666649 0 0 0 0 85.333298v95.99996a42.666649 42.666649 0 0 0 85.333298 0v-170.666596a10.666662 10.666662 0 0 1 10.666662-10.666662h746.666355a10.666662 10.666662 0 0 1 10.666663 10.666662v170.666596a42.666649 42.666649 0 0 0 85.333297 0V618.666836a42.666649 42.666649 0 0 0 0-85.333298zM213.333244 405.333591a42.666649 42.666649 0 0 0 42.666649-42.666649V96.000387A10.666662 10.666662 0 0 1 266.666556 85.333724H699.733042a10.794662 10.794662 0 0 1 7.295997 2.901333l57.599976 54.271977a10.751996 10.751996 0 0 1 3.370665 7.76533V362.666942a42.666649 42.666649 0 0 0 85.333298 0V145.664366A84.735965 84.735965 0 0 0 828.330322 85.333724l-63.999974-60.330641A84.735965 84.735965 0 0 0 703.999707 0.000427H255.999893a85.333298 85.333298 0 0 0-85.333297 85.333297v277.333218a42.666649 42.666649 0 0 0 42.666648 42.666649z" fill="#090909" /></svg>