<?xml version="1.0" standalone="no"?><!DOCTYPE svg PUBLIC "-//W3C//DTD SVG 1.1//EN" "http://www.w3.org/Graphics/SVG/1.1/DTD/svg11.dtd"><svg class="icon" width="200px" height="200.00px" viewBox="0 0 1024 1024" version="1.1" xmlns="http://www.w3.org/2000/svg"><path d="M466.489 45.513C466.489 20.377 486.859 0 512 0c25.135 0 45.511 20.357 45.511 45.513v182.04c0 25.137-20.37 45.514-45.511 45.514-25.135 0-45.511-20.357-45.511-45.513V45.514z m0 750.933c0-25.136 20.37-45.513 45.511-45.513 25.135 0 45.511 20.357 45.511 45.513v182.04c0 25.137-20.37 45.514-45.511 45.514-25.135 0-45.511-20.357-45.511-45.513v-182.04zM978.487 466.49c25.136 0 45.513 20.37 45.513 45.511 0 25.135-20.357 45.511-45.513 45.511h-182.04c-25.137 0-45.514-20.37-45.514-45.511 0-25.135 20.357-45.511 45.513-45.511h182.04z m-750.933 0c25.136 0 45.513 20.37 45.513 45.511 0 25.135-20.357 45.511-45.513 45.511H45.514C20.376 557.511 0 537.141 0 512c0-25.135 20.357-45.511 45.513-45.511h182.04z m646.483 343.186c17.774 17.774 17.779 46.587 0.002 64.364-17.774 17.773-46.576 17.786-64.364-0.002L680.953 745.315c-17.774-17.774-17.779-46.587-0.002-64.364 17.774-17.773 46.576-17.786 64.364 0.002l128.722 128.722z m-530.99-530.99c17.774 17.774 17.779 46.587 0.002 64.364-17.774 17.773-46.576 17.786-64.364-0.002L149.963 214.325c-17.774-17.774-17.779-46.587-0.002-64.364 17.774-17.773 46.576-17.786 64.364 0.002l128.722 128.722z m466.628-128.722c17.774-17.774 46.587-17.779 64.364-0.002 17.773 17.774 17.786 46.576-0.002 64.364L745.315 343.047c-17.774 17.774-46.587 17.779-64.364 0.002-17.773-17.774-17.786-46.576 0.002-64.364l128.722-128.722z m-530.99 530.99c17.774-17.774 46.587-17.779 64.364-0.002 17.773 17.774 17.786 46.576-0.002 64.364L214.325 874.037c-17.774 17.774-46.587 17.779-64.364 0.002-17.773-17.774-17.786-46.576 0.002-64.364l128.722-128.722z" fill="#090909" /></svg>