<?xml version="1.0" standalone="no"?><!DOCTYPE svg PUBLIC "-//W3C//DTD SVG 1.1//EN" "http://www.w3.org/Graphics/SVG/1.1/DTD/svg11.dtd"><svg class="icon" width="200px" height="200.00px" viewBox="0 0 1024 1024" version="1.1" xmlns="http://www.w3.org/2000/svg"><path d="M49.47968 303.06304h153.088c25.36448 0 45.9264-20.56192 45.9264-45.9264 0-25.36448-20.56192-45.9264-45.9264-45.9264H49.47968c-25.36448 0-45.9264 20.56192-45.9264 45.9264 0.01024 25.36448 20.57216 45.9264 45.9264 45.9264z m0 255.15008h153.088c25.36448 0 45.9264-20.56192 45.9264-45.9264 0-25.36448-20.56192-45.9264-45.9264-45.9264H49.47968c-25.36448 0-45.9264 20.56192-45.9264 45.9264 0.01024 25.36448 20.57216 45.9264 45.9264 45.9264z m199.0144 209.21344c0-25.36448-20.56192-45.9264-45.9264-45.9264H49.47968c-25.36448 0-45.9264 20.56192-45.9264 45.9264 0 25.36448 20.56192 45.9264 45.9264 45.9264h153.088c25.36448-0.01024 45.9264-20.57216 45.9264-45.9264zM916.97152 1.9968H202.56768c-27.06432 0-53.02272 10.752-72.17152 29.89056a102.053888 102.053888 0 0 0-29.89056 72.16128v56.13568h102.06208c53.53472 0.01024 96.94208 43.40736 96.94208 96.95232 0 53.53472-43.39712 96.94208-96.94208 96.95232H100.51584v61.2352h102.06208c53.54496 0 96.95232 43.40736 96.95232 96.95232 0 53.5552-43.40736 96.95232-96.95232 96.95232H100.51584v61.2352h102.06208c34.64192-0.01024 66.65216 18.47296 83.968 48.46592 17.32608 29.99296 17.32608 66.95936 0 96.96256-17.31584 29.99296-49.32608 48.47616-83.968 48.46592H100.51584v56.13568c0 27.06432 10.752 53.03296 29.89056 72.17152a102.060032 102.060032 0 0 0 72.17152 29.89056h714.3936a102.053888 102.053888 0 0 0 102.05184-102.06208v-816.4352c0-27.06432-10.752-53.02272-29.89056-72.16128a102.02112 102.02112 0 0 0-72.16128-29.9008z m-153.088 704.70656l-45.9264 91.8528c-2.74432 5.9904-8.72448 9.8304-15.3088 9.8304s-12.56448-3.84-15.3088-9.8304l-45.9264-91.8528V386.75456h122.46016v319.9488z m0-367.4112h-122.4704v-61.2352c0-21.87264 11.66336-42.09664 30.6176-53.03296a61.227008 61.227008 0 0 1 61.22496 0 61.211648 61.211648 0 0 1 30.6176 53.03296v61.2352z m0 0" fill="#090909" /></svg>